# xmcd
#
# Track frame offsets:
# 150
# 9623
# 30106
# 52250
# 74466
# 94601
# 108366
# 130250
# 151651
# 168575
# 187270
# 206911
# 224113
# 241595
# 257611
#
# Disc length: 3708 seconds
#
#
# Revision: 3
# Processed by: cddbd v1.5.2PL0 Copyright (c) Steve Scherf et al.
# Submitted via: FreeRIP 2.945 
#
DISCID=d40e7a0f
DTITLE=Various Artist - The Alltime Greatest Love Ballads [CD1]
DYEAR=2001
DGENRE=Pop
TTITLE0=Bill Withers - Ain't No Sunshine
TTITLE1=Santana - Samba Pa Ti
TTITLE2=Eric Carmen - All By Myself
TTITLE3=Take That - Babe
TTITLE4=Mr. Mister - Kyrie
TTITLE5=Rick Astley - When I Fall In Love
TTITLE6=Gary Barlow - Forever Love
TTITLE7=Thompson Twins - Hold Me Now
TTITLE8=4 The Cause - Stand By Me
TTITLE9=Level 42 - With A Little Love
TTITLE10=Starship - Good Heart
TTITLE11=Bonnie Tyler - Angel Heart
TTITLE12=Chris Norman and Suzi Quatro - A Stranger With You
TTITLE13=Wishful Thinking - America
TTITLE14=Alan Parsons Project - Eye In The Sky
EXTD=
EXTT0=
EXTT1=
EXTT2=
EXTT3=
EXTT4=
EXTT5=
EXTT6=
EXTT7=
EXTT8=
EXTT9=
EXTT10=
EXTT11=
EXTT12=
EXTT13=
EXTT14=
PLAYORDER=
